<?xml version="1.0" standalone="no"?>
<!DOCTYPE svg PUBLIC "-//W3C//DTD SVG 20010904//EN"
 "http://www.w3.org/TR/2001/REC-SVG-20010904/DTD/svg10.dtd">
<svg version="1.0" xmlns="http://www.w3.org/2000/svg"
 width="1865.000000pt" height="1865.000000pt" viewBox="0 0 1865.000000 1865.000000"
 preserveAspectRatio="xMidYMid meet">
<metadata>
Created by potrace 1.11, written by Peter Selinger 2001-2013
</metadata>
<g transform="translate(0.000000,1865.000000) scale(0.100000,-0.100000)"
fill="#000000" stroke="none">
<path d="M0 9325 l0 -9325 9325 0 9325 0 0 9325 0 9325 -9325 0 -9325 0 0
-9325z m13325 3805 c894 -43 1489 -172 2020 -437 185 -93 287 -162 385 -262
112 -114 175 -223 212 -366 16 -65 30 -82 170 -209 379 -344 701 -795 897
-1257 92 -217 192 -555 221 -744 7 -44 26 -125 41 -179 l29 -99 0 -429 0 -428
-26 -67 c-14 -38 -46 -148 -70 -245 -152 -618 -405 -1138 -759 -1561 -122
-146 -351 -371 -490 -483 -357 -285 -789 -516 -1265 -674 -194 -65 -285 -88
-602 -155 l-216 -45 -313 0 c-307 0 -315 0 -379 24 -36 14 -135 37 -220 51
-663 115 -1274 380 -1773 768 l-27 21 -1838 0 c-1792 -1 -1838 -1 -1874 -20
-21 -10 -86 -53 -145 -96 -793 -563 -1751 -789 -2748 -647 -1244 177 -2355
1018 -2863 2169 -146 330 -244 690 -289 1060 -21 178 -24 619 -5 785 89 757
367 1369 879 1930 102 113 211 215 389 367 98 84 101 87 113 144 7 33 26 91
43 131 82 200 223 335 488 468 465 233 974 365 1645 427 296 27 1439 11 1600
-23 28 -6 130 -51 228 -100 l178 -89 2417 0 2418 0 30 31 c77 81 241 164 384
193 223 45 707 65 1115 46z"/>
<path d="M12825 12663 c-181 -6 -437 -26 -502 -38 -90 -17 -136 -41 -193 -100
-56 -58 -99 -86 -170 -111 -54 -18 -122 -19 -2565 -19 -2407 0 -2512 1 -2570
18 -33 10 -132 54 -220 97 l-160 79 -195 11 c-1168 64 -1939 -28 -2582 -308
-320 -139 -402 -210 -433 -378 -29 -152 -81 -220 -320 -421 -352 -296 -640
-671 -816 -1063 -290 -646 -325 -1462 -93 -2175 265 -814 859 -1496 1642
-1888 355 -177 675 -274 1076 -324 166 -21 623 -24 776 -5 589 72 1066 258
1571 613 132 93 201 129 303 156 56 16 217 17 1856 21 1117 2 1839 -1 1911 -7
183 -15 229 -35 439 -191 407 -301 914 -505 1518 -611 97 -17 192 -37 211 -45
26 -11 89 -14 271 -14 l237 0 209 44 c280 59 387 87 546 142 1172 407 1893
1199 2179 2393 22 91 49 188 59 215 19 45 20 74 20 400 0 342 -1 353 -25 434
-13 46 -29 118 -35 161 -36 266 -179 672 -332 946 -164 294 -308 477 -623 790
-264 264 -285 291 -325 442 -39 145 -114 221 -330 332 -395 203 -873 324
-1490 375 -192 17 -638 37 -725 34 -27 -1 -81 -3 -120 -5z m-3285 -433 c0 -6
762 -11 2133 -13 1952 -3 2142 -5 2251 -20 635 -92 1135 -299 1589 -659 132
-105 361 -334 467 -468 245 -308 442 -689 554 -1072 81 -274 106 -443 113
-745 9 -395 -35 -688 -155 -1043 -375 -1105 -1303 -1866 -2502 -2052 -125 -19
-185 -22 -435 -22 -251 0 -309 3 -435 22 -327 51 -645 149 -912 283 -217 108
-368 202 -463 289 -142 129 -239 181 -400 216 -74 16 -223 17 -2085 14 -1951
-2 -2006 -2 -2056 -21 -28 -11 -74 -36 -103 -57 -301 -217 -418 -291 -616
-387 -312 -151 -604 -241 -965 -298 -186 -29 -661 -31 -845 -4 -548 82 -1008
271 -1420 582 -547 414 -1001 1084 -1174 1735 -176 661 -82 1348 276 2020 505
948 1288 1496 2308 1615 196 23 1006 44 2575 66 426 6 993 14 1260 18 751 12
1040 12 1040 1z"/>
<path d="M7605 11743 c-1748 -23 -2689 -45 -2895 -69 -480 -55 -889 -220
-1245 -504 -467 -372 -851 -1018 -968 -1629 -19 -102 -22 -148 -21 -376 0
-245 2 -268 28 -395 101 -491 381 -994 771 -1385 213 -214 398 -347 670 -481
340 -167 663 -248 1050 -261 639 -21 1221 169 1770 578 123 91 176 123 262
155 156 59 15 55 2242 56 l2046 1 108 -22 c110 -22 250 -67 322 -103 84 -43
203 -127 286 -204 69 -63 118 -96 245 -165 326 -178 574 -263 921 -316 156
-24 556 -24 713 0 609 94 1117 343 1520 747 330 329 563 741 674 1190 52 208
67 319 73 541 11 373 -42 664 -182 1015 -131 327 -315 607 -563 857 -209 212
-411 356 -687 492 -335 165 -654 249 -1046 274 -239 16 -4998 19 -6094 4z
m-2277 -384 c221 -23 470 -90 673 -179 553 -244 996 -726 1183 -1290 206 -620
125 -1270 -228 -1825 -432 -679 -1245 -1073 -2052 -994 -954 93 -1741 795
-1929 1720 -157 778 137 1583 765 2095 326 265 730 431 1160 477 79 8 337 6
428 -4z m8382 -180 c258 -64 485 -269 571 -515 181 -518 -169 -1046 -717
-1081 -355 -23 -684 176 -818 495 -85 202 -80 450 13 649 60 127 174 260 294
342 182 124 432 166 657 110z m-5482 -46 l3 -53 55 0 55 0 -3 -57 -3 -58 -112
-3 -113 -3 0 56 0 55 -170 0 -170 0 0 -110 0 -110 225 0 225 0 0 -55 0 -55 55
0 55 0 0 -115 0 -115 -55 0 -55 0 0 -55 0 -55 -280 0 -280 0 0 55 0 55 -55 0
-55 0 0 55 0 55 115 0 115 0 0 -55 0 -55 165 0 165 0 0 115 0 115 -225 0 -225
0 0 55 0 55 -55 0 -55 0 0 115 0 115 55 0 55 0 0 55 0 55 283 -2 282 -3 3 -52z
m792 2 l0 -55 55 0 55 0 0 -55 0 -55 55 0 55 0 0 -170 0 -170 -55 0 -55 0 0
-55 0 -55 -55 0 -55 0 0 -55 0 -55 -285 0 -285 0 0 390 0 390 285 0 285 0 0
-55z m890 0 l0 -55 55 0 55 0 0 -55 0 -55 55 0 55 0 0 -285 0 -285 -115 0
-115 0 0 115 0 115 -165 0 -165 0 0 -115 0 -115 -110 0 -110 0 0 285 0 285 55
0 55 0 0 55 0 55 55 0 55 0 0 55 0 55 170 0 170 0 0 -55z m2030 -60 l0 -115
-55 0 -55 0 0 -55 0 -55 -55 0 -55 0 0 -55 0 -55 -55 0 -55 0 0 -170 0 -170
-115 0 -115 0 0 170 0 170 55 0 55 0 0 55 0 55 55 0 55 0 0 55 0 55 55 0 55 0
0 55 0 55 -165 0 -165 0 0 -55 0 -55 -115 0 -115 0 0 115 0 115 395 0 395 0 0
-115z m-1120 -230 l0 -334 113 -3 112 -3 3 -57 3 -58 -346 0 -345 0 0 60 0 60
115 0 115 0 0 225 0 225 -55 0 -55 0 0 55 0 55 55 0 55 0 0 55 0 55 115 0 115
0 0 -335z m1498 -824 c145 -42 270 -119 378 -234 87 -91 144 -185 185 -308 60
-177 50 -403 -25 -573 -81 -184 -250 -347 -434 -422 -103 -41 -174 -56 -297
-61 -99 -4 -135 -1 -208 16 -476 113 -754 594 -602 1041 25 74 81 183 117 230
42 55 146 154 198 190 100 68 214 115 335 139 79 16 269 6 353 -18z m2937 -41
c493 -158 733 -698 508 -1144 -48 -96 -91 -152 -177 -233 -81 -75 -154 -122
-244 -159 -119 -48 -179 -59 -322 -58 -163 0 -223 14 -370 86 -92 46 -117 64
-201 147 -99 99 -147 169 -192 283 -142 354 -12 756 315 974 75 51 159 87 263
115 100 27 319 21 420 -11z m-6397 -388 c48 -43 131 -113 184 -156 153 -121
209 -198 244 -336 23 -88 21 -252 -3 -345 l-18 -70 65 69 c116 123 495 413
905 691 88 60 195 135 238 168 l78 59 85 -79 c47 -43 120 -107 162 -141 155
-128 220 -207 262 -320 59 -154 37 -387 -52 -554 -59 -111 -333 -359 -672
-607 -251 -184 -335 -218 -521 -209 -75 4 -117 12 -169 32 -209 80 -388 281
-442 496 -16 64 -16 211 1 252 4 9 -51 -40 -122 -110 -154 -154 -258 -242
-482 -410 -276 -207 -346 -242 -502 -250 -143 -7 -239 20 -372 105 -226 144
-359 412 -313 633 9 41 28 99 43 130 60 126 342 357 953 780 129 90 260 182
290 206 30 24 59 43 63 44 5 0 48 -35 95 -78z m4920 -758 c366 -75 642 -391
660 -755 18 -384 -218 -712 -593 -825 -79 -24 -107 -27 -230 -27 -124 0 -150
3 -228 26 -158 48 -270 118 -378 235 -98 106 -155 213 -196 363 -24 89 -23
290 1 379 83 304 330 537 644 605 81 18 230 18 320 -1z"/>
<path d="M4910 10889 c-260 -32 -509 -122 -728 -265 -717 -466 -977 -1373
-612 -2130 156 -323 445 -616 769 -778 351 -176 774 -228 1151 -142 676 155
1197 698 1311 1367 18 108 21 150 16 324 -7 274 -41 417 -154 655 -240 507
-713 860 -1283 956 -106 19 -370 26 -470 13z m830 -679 l0 -350 378 -2 377 -3
3 -622 2 -623 -375 0 -375 0 0 -373 0 -374 -157 -6 c-87 -4 -371 -7 -630 -7
l-473 0 0 380 0 380 -360 0 -360 0 0 620 0 620 360 0 360 0 0 355 0 355 625 0
625 0 0 -350z"/>
<path d="M4960 9735 l0 -355 -360 0 -360 0 0 -150 0 -150 360 0 360 0 0 -380
0 -380 160 0 160 0 0 380 0 380 375 0 375 0 0 150 0 150 -380 0 -380 0 0 355
0 355 -155 0 -155 0 0 -355z"/>
<path d="M13410 10721 c-91 -28 -180 -103 -220 -186 -19 -39 -26 -70 -28 -138
-4 -83 -2 -93 27 -152 76 -154 257 -229 429 -176 89 27 177 102 213 183 36 80
34 192 -5 276 -37 79 -114 152 -191 181 -57 22 -173 27 -225 12z"/>
<path d="M8680 10795 l0 -275 110 0 110 0 0 55 0 55 55 0 55 0 0 164 0 165
-52 3 -53 3 -3 53 -3 52 -110 0 -109 0 0 -275z"/>
<path d="M9690 11015 l0 -55 -55 0 -55 0 0 -110 0 -110 165 0 165 0 0 109 0
110 -52 3 -53 3 -3 53 -3 52 -55 0 -54 0 0 -55z"/>
<path d="M11999 9562 c-154 -51 -252 -183 -251 -336 0 -72 20 -131 64 -192 41
-57 131 -118 199 -134 157 -38 332 41 407 185 23 43 27 62 27 140 0 77 -4 98
-27 147 -74 160 -258 243 -419 190z"/>
<path d="M14930 9531 c-91 -28 -174 -97 -221 -183 -31 -58 -34 -70 -34 -148 0
-71 4 -94 27 -142 73 -156 252 -240 414 -194 69 20 152 73 189 122 77 101 92
227 40 342 -36 80 -121 162 -200 191 -57 22 -164 27 -215 12z"/>
<path d="M8695 9046 c-16 -12 -122 -88 -235 -168 -373 -264 -580 -433 -580
-472 0 -59 120 -166 186 -166 33 0 108 49 313 204 197 149 424 357 442 404 5
13 9 52 9 86 0 62 -1 65 -40 100 -47 42 -55 43 -95 12z"/>
<path d="M10400 8988 c-470 -330 -740 -543 -740 -584 0 -33 57 -110 107 -143
76 -51 101 -45 236 52 253 180 551 429 593 493 10 14 19 55 22 95 l5 70 -49
50 c-26 27 -51 49 -54 48 -3 0 -57 -37 -120 -81z"/>
<path d="M13523 8366 c-186 -61 -293 -235 -249 -406 42 -161 171 -263 336
-264 171 0 300 94 347 253 58 200 -106 417 -322 428 -42 2 -87 -3 -112 -11z"/>
</g>
</svg>
