<?xml version="1.0" encoding="utf-8"?>
<!-- Generator: Adobe Illustrator 20.0.0, SVG Export Plug-In . SVG Version: 6.00 Build 0)  -->
<svg version="1.1" id="Layer_1" xmlns="http://www.w3.org/2000/svg" xmlns:xlink="http://www.w3.org/1999/xlink" x="0px" y="0px"
	 viewBox="0 0 410.9 191" style="enable-background:new 0 0 410.9 191;" xml:space="preserve">
<style type="text/css">
	.st0{fill:none;stroke:#FFFFFF;stroke-width:2;stroke-miterlimit:10;}
	.st1{fill:#FFFFFF;}
</style>
<g>
	<g>
		<path class="st0" d="M392.3,90c0,6.3,0,12.6,0,18.9c-0.4,1.2-1,2.3-1.3,3.5c-7,33.6-27,55.4-59.5,65.9c-5.6,1.8-11.4,2.7-17.1,4
			c-4.4,0-8.9,0-13.3,0c-0.8-0.3-1.6-0.9-2.5-1c-16.6-2.4-31.9-7.9-45.2-18.5c-1.3-1-3.4-1.4-5.1-1.4c-28.9-0.1-57.8-0.1-86.7,0
			c-2,0-4.4,0.8-6,2c-18.9,14.1-40.1,19.6-63.4,16.7c-38.7-4.8-73.3-38.2-73.3-82.6c0-24.4,10.2-44.8,29.3-60.4
			c1.6-1.3,3.9-3.1,4.1-4.8c0.8-7,5.4-10,11-12.7c23.4-11.1,48.2-10.3,73.1-8.9c1.9,0.1,3.6,1.6,5.4,2.4c2.1,0.9,4.2,2.3,6.3,2.3
			c38.6,0.1,77.1,0.1,115.7,0.1c1.6,0,3.8-0.1,4.6-1c3.9-4.9,9.5-4.9,14.7-5.3c6.3-0.5,12.6-0.5,18.9-0.2c16.8,0.8,33.2,2.9,48.3,11
			c4.8,2.6,8.5,5.7,9.6,11.5c0.4,1.9,2.1,3.7,3.7,5.1c14.4,12.7,23.7,28.2,27.2,47.2C390.9,85.9,391.7,87.9,392.3,90z M204.8,30.9
			c0-0.1,0-0.3,0-0.4c-35,0.6-70,0.8-105,1.8c-28.4,0.8-48.5,15.8-60.1,40.8c-11.4,24.6-5.9,48,11,68.5
			c23.7,28.7,66.2,32.4,96.4,8.8c3.4-2.7,6.7-3.9,11.1-3.8c28.7,0.2,57.5,0.4,86.2-0.1c8.9-0.2,16.7,0.6,23.2,7.4
			c1.7,1.8,4.3,2.9,6.5,4.2c23.6,13.5,54.1,11.2,76.4-5.9c21.1-16.2,30.9-44.5,24-70c-8.3-30.8-35-51.1-67.9-51.2
			C272.6,30.8,238.7,30.9,204.8,30.9z"/>
		<path class="st0" d="M56.4,97.6c0.2-25.3,21.4-46.2,46.8-46.1c26,0.1,47.2,20.8,47.3,46.2c0.1,25.7-21.4,46.8-47.4,46.6
			C77.1,144.1,56.2,123.1,56.4,97.6z M113.1,125.1c0-6.4,0-12,0-18.3c6.2,0,12.1,0,18.1,0c0-6.4,0-12.2,0-18.7c-6.2,0-12,0-18.4,0
			c0-6.1,0-11.6,0-17.1c-6.5,0-12.3,0-18.8,0c0,5.8,0,11.2,0,17.3c-6.2,0-11.9,0-17.4,0c0,6.5,0,12.3,0,18.6c5.9,0,11.4,0,17.5,0
			c0,6.3,0,12.1,0,18.4c4.7,0,8.7,0,12.7,0C108.6,125.3,110.4,125.2,113.1,125.1z"/>
		<path class="st0" d="M181.7,94.2c2.5,2.3,6.3,4.3,7.2,7.1c1,2.9,0.4,7.9-1.6,10c-5.2,5.4-11.3,10.1-17.5,14.4
			c-3.9,2.7-8.2,1.6-11.7-1.7c-3.3-3.2-4.6-8-1.6-11C163.1,106.6,181.3,94.5,181.7,94.2z"/>
		<path class="st0" d="M224.8,94.3c2.6,2.5,6.4,4.6,7.4,7.6c1,2.9,0.2,7.8-1.8,9.9c-5.1,5.3-11.1,9.7-17.1,14
			c-4.1,2.9-8.6,1.9-12.1-1.6c-3.4-3.4-4.6-8.2-1.3-11.4C206.3,106.6,224.4,94.6,224.8,94.3z"/>
		<path class="st0" d="M306.7,83.4c-8.1,0.1-14.4-5.8-14.6-13.5c-0.2-7.9,6.4-14.5,14.4-14.4c7.6,0.1,13.8,6.2,14,13.7
			C320.8,76.9,314.5,83.3,306.7,83.4z"/>
		<path class="st0" d="M286.5,97.4c0.1,7.7-6.1,13.9-14.1,14.1c-7.8,0.1-14.4-6.3-14.4-13.9c0-7.7,6.4-14,14.2-14.2
			C279.8,83.3,286.4,89.7,286.5,97.4z"/>
		<path class="st0" d="M309.1,140.4c-7.9,0.1-14.2-6-14.4-13.8c-0.2-7.5,6.4-14.1,14.1-14.2c7.7-0.1,14.4,6.4,14.4,13.9
			C323.2,134.1,317,140.3,309.1,140.4z"/>
		<path class="st0" d="M343.1,112.4c-7.8,0.1-14.2-6.1-14.4-13.9c-0.1-7.6,6.4-14.1,14.1-14.2c7.7-0.1,14.2,6.2,14.4,13.9
			C357.5,105.8,350.9,112.4,343.1,112.4z"/>
	</g>
	<g>
		<path class="st1" d="M173.7,69.3v-1.7H172v-1.7h3.5v1.7h5.2v-3.5h-6.9v-1.7H172v-3.5h1.7v-1.7h8.7v1.7h1.7v1.7h-3.5v-1.7h-5.2v3.5
			h6.9v1.7h1.7v3.5h-1.7v1.7H173.7z"/>
		<path class="st1" d="M185.9,69.3V57.1h8.7v1.7h1.7v1.7h1.7v5.2h-1.7v1.7h-1.7v1.7H185.9z M189.4,67.5h3.5v-1.7h1.7v-5.2h-1.7v-1.7
			h-3.5V67.5z"/>
		<path class="st1" d="M199.8,69.3v-8.7h1.7v-1.7h1.7v-1.7h5.2v1.7h1.7v1.7h1.7v8.7h-3.5v-3.5h-5.2v3.5H199.8z M203.3,64.1h5.2v-3.5
			h-1.7v-1.7H205v1.7h-1.7V64.1z"/>
		<path class="st1" d="M215.4,69.3v-1.7h3.5v-6.9h-1.7v-1.7h1.7v-1.7h3.5v10.4h3.5v1.7H215.4z"/>
		<path class="st1" d="M231.1,69.3v-5.2h1.7v-1.7h1.7v-1.7h1.7v-1.7h-5.2v1.7h-3.5v-3.5h12.2v3.5H238v1.7h-1.7v1.7h-1.7v5.2H231.1z"
			/>
	</g>
</g>
</svg>
