<?xml version="1.0" encoding="utf-8"?>
<!-- Generator: Adobe Illustrator 20.0.0, SVG Export Plug-In . SVG Version: 6.00 Build 0)  -->
<svg version="1.1" id="Layer_1" xmlns="http://www.w3.org/2000/svg" xmlns:xlink="http://www.w3.org/1999/xlink" x="0px" y="0px"
	 viewBox="0 0 278.2 28.2" style="enable-background:new 0 0 278.2 28.2;" xml:space="preserve">
<style type="text/css">
	.st0{fill:#333333;}
	.st1{fill:#F15B27;}
</style>
<g>
	<path class="st0" d="M0,24.7v-3.5h17.6v-3.5H3.5v-3.5H0v-3.5h3.5V7h17.6v3.5H7v3.5h14.1v3.5h3.5v3.5h-3.5v3.5H0z"/>
	<path class="st0" d="M31.7,24.7v-3.5h-3.5V7h7v14.1h10.6V7h7v17.6H31.7z"/>
	<path class="st0" d="M56.3,28.2V7h21.1v3.5H81v7h-3.5v3.5H63.4v7H56.3z M63.4,17.6H74v-7H63.4V17.6z"/>
	<path class="st0" d="M88,24.7v-3.5h-3.5V10.6H88V7h17.6v3.5h3.5v7H91.6v3.5h14.1v3.5H88z M91.6,14.1h10.6v-3.5H91.6V14.1z"/>
	<path class="st0" d="M123.3,10.6h3.5v3.5h-3.5v10.6h-7V7h7V10.6z M137.3,7v3.5h-10.6V7H137.3z"/>
	<path class="st1" d="M140.9,24.7v-3.5h17.6v-3.5h-14.1v-3.5h-3.5v-3.5h3.5V7H162v3.5h-14.1v3.5H162v3.5h3.5v3.5H162v3.5H140.9z"/>
	<path class="st1" d="M179.6,24.7V10.6h-7V7h7V0h7v7h7v3.5h-7v14.1H179.6z"/>
	<path class="st1" d="M200.7,24.7v-3.5h-3.5V10.6h3.5V7h17.6v3.5h3.5v10.6h-3.5v3.5H200.7z M204.3,21.1h10.6V10.6h-10.6V21.1z"/>
	<path class="st1" d="M235.9,10.6h3.5v3.5h-3.5v10.6h-7V7h7V10.6z M250,7v3.5h-10.6V7H250z"/>
	<path class="st1" d="M257.1,24.7v-3.5h-3.5V10.6h3.5V7h17.6v3.5h3.5v7h-17.6v3.5h14.1v3.5H257.1z M260.6,14.1h10.6v-3.5h-10.6V14.1
		z"/>
</g>
</svg>
